<svg xmlns="http://www.w3.org/2000/svg" xmlns:xlink="http://www.w3.org/1999/xlink" viewBox="0 0 446.51 447.25"><defs><style>.cls-1{fill:#6f6f6e;}.cls-2{fill:url(#Unbenannter_Verlauf_64);}.cls-3{fill:#fff;}</style><linearGradient id="Unbenannter_Verlauf_64" x1="3792.36" y1="6093.59" x2="4148.11" y2="6298.98" gradientTransform="translate(-3743.19 -5970.34)" gradientUnits="userSpaceOnUse"><stop offset="0" stop-color="#3c3c3b"/><stop offset="0.26" stop-color="#3e3e3d" stop-opacity="0.93"/><stop offset="0.52" stop-color="#434342" stop-opacity="0.74"/><stop offset="0.77" stop-color="#4c4c4b" stop-opacity="0.41"/><stop offset="1" stop-color="#575756" stop-opacity="0"/></linearGradient></defs><title>icon_consumption_dark_grey</title><g id="Ebene_2" data-name="Ebene 2"><g id="product_features_raute_v2" data-name="product features raute v2"><g id="consumption-2" data-name="consumption"><path class="cls-1" d="M258.46,12.87c24,19.54,70.18,61,92.08,82.85s63.23,68.71,83.29,92.51c17.11,20.31,16.72,49.9,0,70.71-19.38,24.12-60.39,70.56-82.26,92.44-22,22-68.3,64-93.1,82.93-22.14,16.86-49.75,17.65-70.71,0-23.81-20-70.71-61.08-92.72-83.09s-64-67.57-82.65-92.28c-16.32-21.6-16.71-49.61,0-70.71C31.74,163.8,73.92,117.77,96,95.74c21.87-21.86,67.58-63.64,91.79-82.87C209.1-4.09,237.11-4.49,258.46,12.87Z"/><g id="shadow"><path class="cls-2" d="M433.82,188.23c-3.85-4.57-8.49-10-13.62-15.92L306.33,119.11s28.51,41.51,20.45,96S297,320.83,218.33,335.38q-3.08.57-6.06,1l-1.66.21c-1.42.18-2.83.36-4.22.5-.66.07-1.29.1-1.94.15-1.26.1-2.52.2-3.76.27-.68,0-1.35.05-2,.07-1.17,0-2.34.08-3.48.08h-.62l-.89,0c-1.92,0-3.8-.09-5.65-.19-.43,0-.86,0-1.28-.08-2.14-.16-4.23-.38-6.27-.66l-1.14-.18q-2.58-.39-5.05-.91l-1.35-.28c-1.91-.43-3.78-.91-5.6-1.45l-.89-.28q-2.34-.73-4.57-1.57l-1.32-.51c-1.7-.67-3.37-1.38-5-2.16-.18-.08-.34-.18-.52-.26-1.46-.71-2.87-1.47-4.25-2.26l-1.19-.69c-1.5-.9-3-1.82-4.39-2.8-4.92,4.86-12.61,13.06-17.38,21-5,8.33-10.69,18.88-13.89,24.92h0l143.66,65.61.82-.6c24.79-18.89,71.06-60.88,93.1-82.93,21.87-21.88,62.89-68.32,82.26-92.44C450.54,238.14,450.94,208.55,433.82,188.23ZM153.26,286.11c34.7-20.45,80.94-40.86,107.81-66.63a140.72,140.72,0,0,0,23.23-29.7,154.75,154.75,0,0,1-25.05,22.37c-28.34,22.55-76.35,33.69-104.49,49.42-14.28,8-30,21.94-36.21,28.64l17.54,8.52A115.27,115.27,0,0,1,153.26,286.11Z"/></g><g id="icon"><path class="cls-3" d="M326.78,215.15c8.07-54.53-20.45-96-20.45-96s-2.49,5.27-11.78,14.87-35.94,26-84,30.67c-2.53.25-5.07.57-7.6.94l-.72.1q-3.71.56-7.4,1.29c-9.23,1.69-16.25,3.42-16.25,3.42C145.19,178,113.38,206.54,110.5,244a91,91,0,0,0,8,46.19c6.21-6.69,21.93-20.66,36.22-28.65,28.14-15.73,76.15-26.87,104.49-49.42a154.75,154.75,0,0,0,25.05-22.37,140.72,140.72,0,0,1-23.23,29.7C234.2,245.25,188,265.66,153.26,286.11c-28,16.52-51.59,51.21-59.63,64l1.28,1.28c5.16,5.16,11.69,11.37,19,18.1,3.18-6,8.93-16.68,14-25.09,4.77-7.95,12.46-16.14,17.38-21,1.42,1,2.89,1.9,4.39,2.8l1.19.69c1.38.79,2.79,1.55,4.25,2.26.17.08.34.18.52.26,1.6.78,3.27,1.49,5,2.16l1.32.51q2.23.83,4.57,1.57l.89.28c1.82.54,3.69,1,5.6,1.45l1.35.28q2.48.52,5.05.91l1.14.18c2,.28,4.14.5,6.27.66.42,0,.85.05,1.28.08,1.85.1,3.73.17,5.65.19l.89,0h.62c1.14,0,2.31,0,3.48-.08.67,0,1.34,0,2-.07,1.24-.07,2.5-.17,3.76-.27.65-.05,1.28-.08,1.94-.15,1.39-.14,2.8-.32,4.22-.5l1.66-.21q3-.42,6.06-1C297,320.83,318.72,269.69,326.78,215.15Z"/></g></g></g></g></svg>