<svg xmlns="http://www.w3.org/2000/svg" xmlns:xlink="http://www.w3.org/1999/xlink" viewBox="0 0 446.51 447.25"><defs><style>.cls-1{fill:#6f6f6e;}.cls-2{fill:url(#Unbenannter_Verlauf_64);}.cls-3{fill:#fff;}.cls-4{fill:url(#Unbenannter_Verlauf_218);}.cls-5{fill:url(#Unbenannter_Verlauf_218-2);}</style><linearGradient id="Unbenannter_Verlauf_64" x1="3743.19" y1="6193.97" x2="4207.86" y2="6193.97" gradientTransform="translate(-3743.19 -5970.34)" gradientUnits="userSpaceOnUse"><stop offset="0" stop-color="#3c3c3b"/><stop offset="0.26" stop-color="#3e3e3d" stop-opacity="0.93"/><stop offset="0.52" stop-color="#434342" stop-opacity="0.74"/><stop offset="0.77" stop-color="#4c4c4b" stop-opacity="0.41"/><stop offset="1" stop-color="#575756" stop-opacity="0"/></linearGradient><linearGradient id="Unbenannter_Verlauf_218" x1="650.97" y1="722.92" x2="752.97" y2="722.92" gradientTransform="translate(208.11 1255.3) rotate(-135)" gradientUnits="userSpaceOnUse"><stop offset="0" stop-color="#fff" stop-opacity="0"/><stop offset="0.05" stop-color="#fff" stop-opacity="0.02"/><stop offset="0.11" stop-color="#fff" stop-opacity="0.09"/><stop offset="0.18" stop-color="#fff" stop-opacity="0.19"/><stop offset="0.26" stop-color="#fff" stop-opacity="0.34"/><stop offset="0.34" stop-color="#fff" stop-opacity="0.53"/><stop offset="0.42" stop-color="#fff" stop-opacity="0.76"/><stop offset="0.5" stop-color="#fff"/><stop offset="0.58" stop-color="#fff" stop-opacity="0.76"/><stop offset="0.66" stop-color="#fff" stop-opacity="0.53"/><stop offset="0.74" stop-color="#fff" stop-opacity="0.34"/><stop offset="0.82" stop-color="#fff" stop-opacity="0.19"/><stop offset="0.89" stop-color="#fff" stop-opacity="0.09"/><stop offset="0.95" stop-color="#fff" stop-opacity="0.02"/><stop offset="1" stop-color="#fff" stop-opacity="0"/></linearGradient><linearGradient id="Unbenannter_Verlauf_218-2" x1="451.41" y1="246.62" x2="553.41" y2="246.62" gradientTransform="translate(-306.71 428.63) rotate(-45)" xlink:href="#Unbenannter_Verlauf_218"/></defs><title>icon_performance_dark_grey</title><g id="Ebene_2" data-name="Ebene 2"><g id="product_features_raute_v2" data-name="product features raute v2"><g id="performance"><path class="cls-1" d="M258.46,12.87c24,19.54,70.18,61,92.08,82.85s63.23,68.71,83.29,92.51c17.11,20.31,16.72,49.9,0,70.71-19.38,24.12-60.39,70.56-82.26,92.44-22,22-68.3,64-93.1,82.93-22.14,16.86-49.75,17.65-70.71,0-23.81-20-70.71-61.08-92.72-83.09s-64-67.57-82.65-92.28c-16.32-21.6-16.71-49.61,0-70.71C31.74,163.8,73.92,117.77,96,95.74c21.87-21.86,67.58-63.64,91.79-82.87C209.1-4.09,237.11-4.49,258.46,12.87Z"/><g id="shadow"><path class="cls-2" d="M273,297.66a70.92,70.92,0,1,0-100.3,0A70.92,70.92,0,0,0,273,297.66ZM235.08,83.77h0ZM433.82,188.23C420.14,172,396.58,145.07,376,122.61l-126.53-58h0l59.82,59.82-10,10L260.13,95.25h0l-25-11.48L289.31,138l-8.17,8.17a116.88,116.88,0,0,0-62.88-15.47l-10.8,10.8a107.12,107.12,0,1,1-29.8,203.17h0L299,400.32c19.76-17.49,40.07-36.42,52.58-48.94,21.87-21.88,62.89-68.32,82.26-92.44C450.54,238.14,450.94,208.55,433.82,188.23Z"/></g><path class="cls-3" d="M309.3,124.45,249.48,64.63l-10,10,59.82,59.82Zm-10.76,47.32a107,107,0,0,0-91.09-30.27l10.8-10.8a116.88,116.88,0,0,1,62.88,15.47l8.17-8.17L235.08,83.77l-87.78,87.78-.23.22-.22.23-.17.17h0a107.11,107.11,0,1,0,151.87-.4ZM273,297.66a70.92,70.92,0,1,1,0-100.3A70.92,70.92,0,0,1,273,297.66Z"/><g id="schaufelrad_umgewandelt" data-name="schaufelrad umgewandelt"><path class="cls-4" d="M259,211.69a51,51,0,1,0,0,72.13A51,51,0,0,0,259,211.69Zm-23.44,48.68a17.85,17.85,0,1,1,0-25.24A17.85,17.85,0,0,1,235.56,260.38Z"/><path class="cls-5" d="M259,211.69a51,51,0,1,0,0,72.13A51,51,0,0,0,259,211.69Zm-23.44,48.68a17.85,17.85,0,1,1,0-25.24A17.85,17.85,0,0,1,235.56,260.38Z"/></g></g></g></g></svg>